<?xml version="1.0" encoding="utf-8"?>
<!-- Generator: Adobe Illustrator 16.0.0, SVG Export Plug-In . SVG Version: 6.00 Build 0)  -->
<!DOCTYPE svg PUBLIC "-//W3C//DTD SVG 1.1//EN" "http://www.w3.org/Graphics/SVG/1.1/DTD/svg11.dtd">
<svg version="1.1" id="Layer_1" xmlns="http://www.w3.org/2000/svg" xmlns:xlink="http://www.w3.org/1999/xlink" x="0px" y="0px"
	 width="1024px" height="1024px" viewBox="0 0 1024 1024" enable-background="new 0 0 1024 1024" xml:space="preserve">
<radialGradient id="SVGID_1_" cx="-147.9043" cy="113.2808" r="1302.9355" gradientTransform="matrix(1.0001 0 0 -1.0001 214.3398 1117.1318)" gradientUnits="userSpaceOnUse">
	<stop  offset="0.09" style="stop-color:#F28E29"/>
	<stop  offset="0.78" style="stop-color:#D92F7F"/>
</radialGradient>
<path fill="url(#SVGID_1_)" d="M260.25,1022.695c-61.036-2.775-94.192-12.933-116.246-21.535
	c-29.222-11.378-50.056-24.92-71.986-46.82c-21.932-21.902-35.506-42.735-46.822-71.957C16.594,860.329,6.437,827.174,3.66,766.137
	C0.61,700.16,0,680.363,0,513.208c0-167.154,0.671-186.92,3.63-252.958c2.776-61.036,12.994-94.132,21.535-116.247
	c11.377-29.221,24.951-50.055,46.821-72.016c21.901-21.901,42.734-35.506,71.987-46.822c22.053-8.602,55.209-18.759,116.245-21.535
	C326.227,0.61,346.054,0,513.147,0c167.155,0,186.921,0.671,252.959,3.63c61.036,2.776,94.132,12.994,116.246,21.535
	c29.222,11.316,50.054,24.921,71.986,46.822c21.932,21.9,35.443,42.765,46.821,71.986c8.603,22.053,18.76,55.21,21.536,116.245
	c3.019,66.039,3.629,85.804,3.629,252.96c0,167.093-0.61,186.921-3.629,252.958c-2.776,61.037-12.995,94.192-21.536,116.246
	c-11.378,29.222-24.921,50.055-46.821,71.957c-21.901,21.9-42.765,35.442-71.986,46.82c-22.054,8.603-55.21,18.76-116.246,21.535
	c-65.978,3.02-85.804,3.63-252.959,3.63C346.054,1026.325,326.227,1025.746,260.25,1022.695"/>
<path fill="#FFFFFF" d="M387.156,515.351c0-70.19,56.885-127.105,127.074-127.105c70.19,0,127.104,56.915,127.104,127.105
	c0,70.189-56.914,127.104-127.104,127.104C444.041,642.454,387.156,585.54,387.156,515.351 M318.445,515.351
	c0,108.132,87.653,195.783,195.785,195.783s195.785-87.651,195.785-195.783c0-108.133-87.653-195.785-195.785-195.785
	s-195.781,87.646-195.781,195.785 M672.016,311.802c-0.011,25.27,20.466,45.762,45.735,45.772
	c25.269,0.01,45.762-20.466,45.771-45.735c0.011-25.27-20.466-45.763-45.735-45.772h-0.019
	C692.513,266.078,672.037,286.545,672.016,311.802 M360.191,825.709c-37.174-1.692-57.379-7.885-70.806-13.116
	c-17.802-6.931-30.503-15.185-43.857-28.52c-13.354-13.337-21.62-26.025-28.52-43.827c-5.234-13.421-11.427-33.632-13.116-70.806
	c-1.849-40.19-2.218-52.263-2.218-154.084s0.399-113.861,2.218-154.085c1.693-37.174,7.931-57.346,13.116-70.807
	c6.931-17.801,15.185-30.502,28.52-43.856c13.336-13.354,26.025-21.62,43.857-28.52c13.421-5.234,33.632-11.427,70.806-13.116
	c40.19-1.849,52.264-2.218,154.039-2.218c101.774,0,113.86,0.394,154.084,2.224c37.175,1.692,57.345,7.931,70.806,13.116
	c17.802,6.899,30.504,15.185,43.858,28.521c13.353,13.336,21.589,26.055,28.52,43.856c5.233,13.421,11.426,33.632,13.115,70.806
	c1.849,40.225,2.218,52.264,2.218,154.085s-0.369,113.86-2.218,154.084c-1.692,37.174-7.915,57.379-13.115,70.806
	c-6.931,17.802-15.185,30.504-28.52,43.827c-13.337,13.323-26.057,21.59-43.858,28.52c-13.42,5.234-33.631,11.426-70.806,13.116
	c-40.19,1.849-52.263,2.218-154.084,2.218s-113.86-0.369-154.039-2.218 M357.035,136.375c-40.59,1.849-68.327,8.284-92.549,17.71
	c-25.07,9.733-46.321,22.792-67.542,43.979c-21.222,21.188-34.246,42.441-43.979,67.542c-9.425,24.237-15.861,51.958-17.709,92.548
	c-1.88,40.654-2.31,53.651-2.31,157.197c0,103.544,0.43,116.541,2.31,157.195c1.848,40.594,8.284,68.311,17.709,92.548
	c9.733,25.071,22.762,46.364,43.979,67.542c21.218,21.179,42.441,34.219,67.542,43.979c24.268,9.425,51.959,15.861,92.549,17.709
	c40.675,1.85,53.65,2.31,157.195,2.31s116.542-0.431,157.196-2.31c40.593-1.848,68.311-8.284,92.547-17.709
	c25.071-9.761,46.322-22.792,67.542-43.979c21.222-21.187,34.219-42.471,43.979-67.542c9.426-24.237,15.892-51.958,17.71-92.548
	c1.849-40.685,2.278-53.651,2.278-157.195c0-103.546-0.43-116.543-2.278-157.197c-1.849-40.592-8.284-68.325-17.71-92.548
	c-9.761-25.069-22.791-46.321-43.979-67.542c-21.187-21.221-42.471-34.245-67.511-43.979c-24.268-9.426-51.989-15.893-92.548-17.71
	c-40.661-1.857-53.652-2.31-157.182-2.31c-103.528,0-116.551,0.431-157.226,2.31"/>
</svg>
